<svg id="Capa_1" enable-background="new 0 0 511.994 511.994" height="512" viewBox="0 0 511.994 511.994" width="512" xmlns="http://www.w3.org/2000/svg"><g><g><path d="m79.37 72.146c-.385-.385-.749-.783-1.119-1.177l-70.393 70.392c-5.858 5.858-5.858 15.356 0 21.213 2.929 2.93 6.767 4.394 10.606 4.394 3.838 0 7.678-1.465 10.606-4.394l70.364-70.364z"/></g><g><path d="m132.527 125.303-70.364 70.364c-5.858 5.857-5.858 15.355 0 21.213 2.929 2.929 6.768 4.394 10.606 4.394s7.678-1.465 10.606-4.394l70.364-70.364z"/></g><g><path d="m365.474 358.249-70.364 70.364c-5.858 5.857-5.858 15.355 0 21.213 2.929 2.929 6.768 4.394 10.606 4.394s7.678-1.465 10.606-4.394l70.364-70.364z"/></g><g><path d="m419.779 412.554-70.364 70.364c-5.858 5.857-5.858 15.355 0 21.213 2.929 2.93 6.767 4.394 10.606 4.394 3.838 0 7.678-1.465 10.606-4.394l70.392-70.392c-.394-.37-.792-.736-1.176-1.12z"/></g><g><path d="m283.62 85.251-142.154-82.526c-3.155-1.832-6.651-2.725-10.124-2.725-5.229 0-10.405 2.023-14.291 5.909l-16.469 16.468c-7.873 7.873-7.873 20.683 0 28.556l113.108 113.107z"/></g><g><path d="m426.738 228.37-78.788 69.929 113.107 113.107c3.814 3.813 8.884 5.914 14.278 5.914 5.393 0 10.463-2.101 14.277-5.914l16.469-16.468c6.466-6.467 7.776-16.507 3.185-24.415z"/></g><g><path d="m80.329 322.055-51.239-17.169c-2.128-.713-4.308-1.061-6.464-1.061-5.253 0-10.363 2.063-14.229 5.928l-2.489 2.489c-7.873 7.873-7.873 20.683 0 28.556l38.525 38.525c11.079-19.64 23.047-38.755 35.896-57.268z"/></g><g><path d="m132.247 467.137 38.943 38.943c3.814 3.813 8.884 5.914 14.278 5.914 5.393 0 10.463-2.101 14.277-5.914l2.489-2.489c5.452-5.452 7.317-13.382 4.868-20.692l-17.275-51.557c-18.615 12.822-37.832 24.758-57.58 35.795z"/></g><g><path d="m239.957 354.036 222.391-197.385c.029-.025.058-.051.087-.076 25.065-21.902 46.438-68.921 47.646-104.813.4-11.894-1.262-28.209-11.453-38.4-9.319-9.319-23.451-11.468-38.399-11.453-1.075.001 1.017-.034 0 0-35.893 1.207-82.912 22.581-104.814 47.646-.026.029-.051.058-.077.087l-199.177 224.41c-42.42 47.793-78.989 103.147-106.824 160.671v-.001.001c-5.864 12.117 1.504 20.941 3.902 23.357 2.397 2.415 11.167 9.847 23.328 4.074 59.313-28.158 114.286-64.534 163.39-108.118z"/></g></g></svg>